<svg width="11" height="18" viewBox="0 0 11 18" fill="none" xmlns="http://www.w3.org/2000/svg">
<path d="M2.42885 3.47362C2.42885 3.36141 2.44607 3.11909 2.4805 2.74819C2.51752 2.37652 2.67246 1.98771 2.9505 1.57941C3.22596 1.17268 3.67272 0.807238 4.29422 0.483875C4.91314 0.162071 5.80752 0 6.97478 0H10.2631V3.24376H7.85538C7.61694 3.24376 7.39485 3.32479 7.19428 3.48452C6.99544 3.64426 6.893 3.7962 6.893 3.93723V5.95533H10.2622C10.2269 6.35037 10.1882 6.73451 10.1434 7.10541L10.01 8.08562C9.95662 8.41678 9.90238 8.72378 9.84901 9.00662H6.8689V18H2.42885V9.00584H0.263062V5.95533H2.42885V3.47362Z" fill="white"/>
</svg>
