<svg width="794" height="794" viewBox="0 0 794 794" fill="none" xmlns="http://www.w3.org/2000/svg">
<g filter="url(#filter0_f)">
<circle cx="397" cy="397" r="297" fill="#018EBC" fill-opacity="0.4"/>
</g>
<path d="M157 277.001L397 397.001L637 277.001V533.001L397 652.999L157 532.999V277.001Z" fill="#018EBC"/>
<path d="M157 300.999V375.799L396.2 492.999L636.999 375.399V300.999L397 418.6L157 300.999Z" fill="#016D90"/>
<path d="M397 652.999V397.001L173 285.001H157V533.001L397 652.999Z" fill="#018EBC"/>
<path d="M157 300.999V375.799L396.2 492.999L397 492.599V418.199V418.599L157 300.999Z" fill="#006C90"/>
<path d="M141 268.601L397 141.001L653 268.601V285.401L397 412.999L141 285.8V268.601Z" fill="#018EBC"/>
<path d="M543.799 181.4C535.399 166.201 517.399 157 496.199 157C447.799 157 413.799 202.2 396.999 231C380.199 202.2 345.799 157.4 297.799 157.4C266.999 157.4 244.999 176.2 244.999 201.8C244.999 247.4 294.999 277 395.398 277C495.798 277 548.998 239 548.998 202.2C548.999 195.001 547.4 187.801 543.799 181.4ZM308.2 230.601C297 223.001 293 214.601 293 209.001C293 202.201 299.401 197.001 308.6 197.001C330.2 197.001 347.4 225.401 357 245.002C331.8 243.001 316.999 236.2 308.2 230.601ZM485.799 230.601C476.999 236.201 462.199 243.001 436.999 245.001C446.199 225.401 463.399 197 485.399 197C494.598 197 500.999 202.2 500.999 209C501 214.601 496.999 223 485.799 230.601Z" fill="#EFEFEF"/>
<path d="M141 269.001L397 394.201L653 269.001V351.801L396.2 477.001L141 351.801V269.001Z" fill="#069CCE"/>
<path d="M493 358.2V349.001L397 297.001L301 349.001V358.2L237.001 330.2V317.401L393.8 234.601L397 236.2L400.2 234.601L556.999 317V329.8L493 358.2Z" fill="#EFEFEF"/>
<path d="M493 349V604.6L556.999 572.6V317L493 349Z" fill="#DCDCDC"/>
<path d="M237 572.999L300.999 604.999V349.401L237 317C237 316.999 237 572.999 237 572.999Z" fill="#D1D1D1"/>
<defs>
<filter id="filter0_f" x="0" y="0" width="794" height="794" filterUnits="userSpaceOnUse" color-interpolation-filters="sRGB">
<feFlood flood-opacity="0" result="BackgroundImageFix"/>
<feBlend mode="normal" in="SourceGraphic" in2="BackgroundImageFix" result="shape"/>
<feGaussianBlur stdDeviation="50" result="effect1_foregroundBlur"/>
</filter>
</defs>
</svg>
