<svg id="visual" viewBox="0 0 900 600" width="900" height="600" xmlns="http://www.w3.org/2000/svg" xmlns:xlink="http://www.w3.org/1999/xlink" version="1.1"><rect x="0" y="0" width="900" height="600" fill="#151515"></rect><path d="M0 355L21.5 361C43 367 86 379 128.8 380.7C171.7 382.3 214.3 373.7 257.2 364.8C300 356 343 347 385.8 350.3C428.7 353.7 471.3 369.3 514.2 377.5C557 385.7 600 386.3 642.8 379.2C685.7 372 728.3 357 771.2 351C814 345 857 348 878.5 349.5L900 351L900 601L878.5 601C857 601 814 601 771.2 601C728.3 601 685.7 601 642.8 601C600 601 557 601 514.2 601C471.3 601 428.7 601 385.8 601C343 601 300 601 257.2 601C214.3 601 171.7 601 128.8 601C86 601 43 601 21.5 601L0 601Z" fill="#001d27"></path><path d="M0 398L21.5 391.2C43 384.3 86 370.7 128.8 375C171.7 379.3 214.3 401.7 257.2 405C300 408.3 343 392.7 385.8 393.8C428.7 395 471.3 413 514.2 412.3C557 411.7 600 392.3 642.8 386.2C685.7 380 728.3 387 771.2 390.7C814 394.3 857 394.7 878.5 394.8L900 395L900 601L878.5 601C857 601 814 601 771.2 601C728.3 601 685.7 601 642.8 601C600 601 557 601 514.2 601C471.3 601 428.7 601 385.8 601C343 601 300 601 257.2 601C214.3 601 171.7 601 128.8 601C86 601 43 601 21.5 601L0 601Z" fill="#003749"></path><path d="M0 391L21.5 394.2C43 397.3 86 403.7 128.8 407.7C171.7 411.7 214.3 413.3 257.2 423C300 432.7 343 450.3 385.8 457.7C428.7 465 471.3 462 514.2 463.3C557 464.7 600 470.3 642.8 463.2C685.7 456 728.3 436 771.2 427.3C814 418.7 857 421.3 878.5 422.7L900 424L900 601L878.5 601C857 601 814 601 771.2 601C728.3 601 685.7 601 642.8 601C600 601 557 601 514.2 601C471.3 601 428.7 601 385.8 601C343 601 300 601 257.2 601C214.3 601 171.7 601 128.8 601C86 601 43 601 21.5 601L0 601Z" fill="#00536f"></path><path d="M0 475L21.5 474.7C43 474.3 86 473.7 128.8 471.5C171.7 469.3 214.3 465.7 257.2 460.2C300 454.7 343 447.3 385.8 444C428.7 440.7 471.3 441.3 514.2 442C557 442.7 600 443.3 642.8 452.8C685.7 462.3 728.3 480.7 771.2 481.7C814 482.7 857 466.3 878.5 458.2L900 450L900 601L878.5 601C857 601 814 601 771.2 601C728.3 601 685.7 601 642.8 601C600 601 557 601 514.2 601C471.3 601 428.7 601 385.8 601C343 601 300 601 257.2 601C214.3 601 171.7 601 128.8 601C86 601 43 601 21.5 601L0 601Z" fill="#00536f"></path><path d="M0 531L21.5 524C43 517 86 503 128.8 499.7C171.7 496.3 214.3 503.7 257.2 504.3C300 505 343 499 385.8 496.7C428.7 494.3 471.3 495.7 514.2 500.8C557 506 600 515 642.8 521C685.7 527 728.3 530 771.2 528.8C814 527.7 857 522.3 878.5 519.7L900 517L900 601L878.5 601C857 601 814 601 771.2 601C728.3 601 685.7 601 642.8 601C600 601 557 601 514.2 601C471.3 601 428.7 601 385.8 601C343 601 300 601 257.2 601C214.3 601 171.7 601 128.8 601C86 601 43 601 21.5 601L0 601Z" fill="#003749"></path><path d="M0 557L21.5 553C43 549 86 541 128.8 538.5C171.7 536 214.3 539 257.2 539.5C300 540 343 538 385.8 535C428.7 532 471.3 528 514.2 530.8C557 533.7 600 543.3 642.8 549.5C685.7 555.7 728.3 558.3 771.2 554.3C814 550.3 857 539.7 878.5 534.3L900 529L900 601L878.5 601C857 601 814 601 771.2 601C728.3 601 685.7 601 642.8 601C600 601 557 601 514.2 601C471.3 601 428.7 601 385.8 601C343 601 300 601 257.2 601C214.3 601 171.7 601 128.8 601C86 601 43 601 21.5 601L0 601Z" fill="#001d27"></path></svg>